# xmcd
# 
# Track frame offsets:
#     150
#     13580
#     28616
#     50656
#     64940
#     79658
#     103988
#     128398
#     146524
#     163128
#     180051
#     192115
#     207566
#     222805
#     235922
#     248282
# 
# Disc length: 3563
# 
# Revision: 2
# Processed by: cddbd v1.5.2PL0 Copyright (c) Steve Scherf et al.
# Submitted via: BonkEnc v1.0.8
# 
DISCID=d30de910
DTITLE=Various Artist - Dixieland-Jazz CD 2
DYEAR=2005
DGENRE=Dixieland Jazz
TTITLE0=Firehouse Five - Firehouse Stomp
TTITLE1=Monty Sunshine Band - Margie
TTITLE2=Ken Coyler and his Jazzmen - We shall walk trough
TTITLE3=Dukes of the Dixieland - Here are the Bob Cats
TTITLE4=Happy Dixie Landers - Bavarien Dixie
TTITLE5=Dixieland all Stars - On the sunny side of the Street
TTITLE6=New Orleons Jazz Babies - Sweet Georgie Brown
TTITLE7=Dutch Swing College Band - Copenhagen
TTITLE8=Alan Elsdon - We`re in the Money
TTITLE9=Papa Bue  - My Monday Date
TTITLE10=Brixie Dixie Jazz Band - Honeysuckle Rose
TTITLE11=Jelly Roll Morton`s Red Hot Peppers - Dr. Jazz
TTITLE12=Louis Dumeine`s Jazzola Eight - Franklin Street Blues
TTITLE13=Eddie Condon and his Dixieland Band - I`m coming Virginia
TTITLE14=Kid Ory`s Creole Jazz Band - Maryland my Marieland
TTITLE15=Firehouse five - Fidget Feet
EXTD=
EXTT0=
EXTT1=
EXTT2=
EXTT3=
EXTT4=
EXTT5=
EXTT6=
EXTT7=
EXTT8=
EXTT9=
EXTT10=
EXTT11=
EXTT12=
EXTT13=
EXTT14=
EXTT15=
PLAYORDER=
